<?xml version="1.0" encoding="utf-8"?>
<!-- Generator: Adobe Illustrator 25.2.0, SVG Export Plug-In . SVG Version: 6.00 Build 0)  -->
<svg version="1.1" id="Layer_1" xmlns="http://www.w3.org/2000/svg" xmlns:xlink="http://www.w3.org/1999/xlink" x="0px" y="0px"
	 viewBox="0 0 50 50" style="enable-background:new 0 0 50 50;" xml:space="preserve">
<style type="text/css">
	.st0{fill:#00ADB5;}
</style>
<path class="st0" d="M25-0.6C11.2-0.6,0,11.1,0,25.6c0,11.6,7.2,21.4,17.1,24.9c1.2,0.2,1.7-0.6,1.7-1.3c0-0.6,0-2.7,0-4.9
	c-7,1.6-8.4-3.1-8.4-3.1c-1.1-3-2.8-3.8-2.8-3.8c-2.3-1.6,0.2-1.6,0.2-1.6c2.5,0.2,3.8,2.7,3.8,2.7c2.2,4,5.9,2.9,7.3,2.2
	c0.2-1.7,0.9-2.9,1.6-3.5C14.9,36.6,9,34.3,9,24.3c0-2.9,1-5.2,2.6-7c-0.3-0.7-1.1-3.3,0.2-7c0,0,2.1-0.7,6.9,2.7
	c2-0.6,4.1-0.9,6.3-0.9c2.1,0,4.3,0.3,6.3,0.9c4.8-3.4,6.9-2.7,6.9-2.7c1.4,3.6,0.5,6.3,0.3,7c1.6,1.8,2.6,4.2,2.6,7
	c0,10.1-5.8,12.3-11.4,13c0.9,0.8,1.7,2.4,1.7,4.9c0,3.5,0,6.3,0,7.2c0,0.7,0.5,1.5,1.7,1.3C42.8,47.1,50,37.2,50,25.6
	C50,11.1,38.8-0.6,25-0.6z"/>
</svg>
