<?xml version="1.0" encoding="utf-8"?>
<!-- Generator: Adobe Illustrator 25.2.0, SVG Export Plug-In . SVG Version: 6.00 Build 0)  -->
<svg version="1.1" id="Layer_1" xmlns="http://www.w3.org/2000/svg" xmlns:xlink="http://www.w3.org/1999/xlink" x="0px" y="0px"
	 viewBox="0 0 50 50" style="enable-background:new 0 0 50 50;" xml:space="preserve">
<style type="text/css">
	.st0{fill:#00ADB5;}
</style>
<path class="st0" d="M25,0.4C11.4,0.4,0.4,11.4,0.4,25s11,24.6,24.6,24.6s24.6-11,24.6-24.6S38.6,0.4,25,0.4z M27.3,31.5
	c-2.6,3.6-7.7,4.6-11.7,3.1c-4-1.5-6.9-5.8-6.5-10.1c0.1-5.3,4.9-9.9,10.2-9.7c2.5-0.1,4.9,1,6.9,2.5c-0.8,0.9-1.7,1.8-2.6,2.7
	c-2.3-1.6-5.6-2.1-8-0.2c-3.3,2.3-3.5,7.8-0.3,10.2c3.1,2.8,9,1.4,9.9-2.9c-2,0-3.9,0-5.9-0.1c0-1.2,0-2.3,0-3.5c3.3,0,6.5,0,9.8,0
	C29.4,26.3,29,29.2,27.3,31.5z M41.4,26.5c-1,0-1.9,0-2.9,0c0,1,0,2,0,2.9c-1,0-1.9,0-2.9,0c0-1,0-1.9,0-2.9c-1,0-2,0-2.9,0
	c0-1,0-1.9,0-2.9c1,0,1.9,0,2.9,0c0-1,0-2,0-2.9c1,0,1.9,0,2.9,0c0,1,0,2,0,2.9c1,0,2,0,2.9,0C41.4,24.5,41.4,25.5,41.4,26.5z"/>
</svg>
