<?xml version="1.0" encoding="utf-8"?>
<!-- Generator: Adobe Illustrator 25.2.0, SVG Export Plug-In . SVG Version: 6.00 Build 0)  -->
<svg version="1.1" id="Layer_1" xmlns:serif="http://www.serif.com/"
	 xmlns="http://www.w3.org/2000/svg" xmlns:xlink="http://www.w3.org/1999/xlink" x="0px" y="0px" viewBox="0 0 50 50"
	 style="enable-background:new 0 0 50 50;" xml:space="preserve">
<style type="text/css">
	.st0{fill-rule:evenodd;clip-rule:evenodd;fill:#00ADB5;}
</style>
<path class="st0" d="M25,0c13.8,0,25,11.2,25,25S38.8,50,25,50S0,38.8,0,25S11.2,0,25,0z M17.2,39V19.5h-6.5V39H17.2z M40.6,39V27.9
	c0-6-3.2-8.8-7.5-8.8c-3.4,0-5,1.9-5.8,3.2v-2.8h-6.5c0.1,1.8,0,19.5,0,19.5h6.5V28.1c0-0.6,0-1.2,0.2-1.6c0.5-1.2,1.5-2.4,3.3-2.4
	c2.3,0,3.3,1.8,3.3,4.4V39H40.6L40.6,39z M14,10.1c-2.2,0-3.7,1.5-3.7,3.4c0,1.9,1.4,3.4,3.6,3.4h0c2.3,0,3.7-1.5,3.7-3.4
	C17.6,11.6,16.2,10.1,14,10.1L14,10.1z"/>
</svg>
