<?xml version="1.0" encoding="utf-8"?>
<!-- Generator: Adobe Illustrator 25.2.0, SVG Export Plug-In . SVG Version: 6.00 Build 0)  -->
<svg version="1.1" id="Layer_1" xmlns="http://www.w3.org/2000/svg" xmlns:xlink="http://www.w3.org/1999/xlink" x="0px" y="0px"
	 viewBox="0 0 500 500" style="enable-background:new 0 0 500 500;" xml:space="preserve">
<style type="text/css">
	.st0{fill:#00ADB5;}
	.st1{fill:#464949;}
	.st2{fill:#FFFFFF;}
</style>
<g>
	<path class="st0" d="M143.1,5.6c-42,0-76.4,34.4-76.4,76.4v336c0,42,34.4,76.4,76.4,76.4h213.8c42,0,76.4-34.4,76.4-76.4V82
		c0-42-34.4-76.4-76.4-76.4H143.1z"/>
	<path class="st1" d="M143.1,36.2h213.8c25.5,0,45.8,20.3,45.8,45.8v336c0,25.5-20.3,45.8-45.8,45.8H143.1
		c-25.5,0-45.8-20.3-45.8-45.8V82C97.3,56.5,117.6,36.2,143.1,36.2z"/>
	<path class="st2" d="M143.1,66.7c-8.4,0-15.3,6.8-15.3,15.3v61.1c0,8.4,6.8,15.3,15.3,15.3h213.8c8.4,0,15.3-6.8,15.3-15.3V82
		c0-8.4-6.8-15.3-15.3-15.3H143.1z"/>
	<circle class="st0" cx="158.4" cy="219.5" r="30.5"/>
	<circle class="st0" cx="250" cy="219.5" r="30.5"/>
	<circle class="st0" cx="341.6" cy="219.5" r="30.5"/>
	<circle class="st0" cx="158.4" cy="311.1" r="30.5"/>
	<circle class="st0" cx="250" cy="311.1" r="30.5"/>
	<circle class="st0" cx="341.6" cy="311.1" r="30.5"/>
	<path class="st0" d="M158.4,372.2c-16.9,0-30.5,13.7-30.5,30.5c0,16.9,13.7,30.5,30.5,30.5H250c16.9,0,30.5-13.7,30.5-30.5
		c0-16.9-13.7-30.5-30.5-30.5H158.4z"/>
	<circle class="st0" cx="341.6" cy="402.7" r="30.5"/>
</g>
</svg>
