<?xml version="1.0" encoding="utf-8"?>
<!-- Generator: Adobe Illustrator 25.2.0, SVG Export Plug-In . SVG Version: 6.00 Build 0)  -->
<svg version="1.1" id="Layer_1" xmlns="http://www.w3.org/2000/svg" xmlns:xlink="http://www.w3.org/1999/xlink" x="0px" y="0px"
	 viewBox="0 0 500 500" style="enable-background:new 0 0 500 500;" xml:space="preserve">
<style type="text/css">
	.st0{display:none;}
	.st1{display:inline;opacity:0.2;enable-background:new    ;}
	.st2{display:inline;fill:none;}
	.st3{display:inline;opacity:0.5;}
	.st4{fill:none;}
	.st5{fill:#00ADB5;}
	.st6{fill:#393E46;}
</style>
<g class="st0">
	<path class="st1" d="M224,224v52h52v-52H224z M273.9,273.9h-47.8v-47.8h47.8C273.9,226.1,273.9,273.9,273.9,273.9z"/>
</g>
<g class="st0">
	<rect x="226" y="226" class="st2" width="48" height="48"/>
</g>
<g class="st0">
	<g class="st3">
		<line class="st4" x1="274" y1="226" x2="226" y2="274"/>
		<line class="st4" x1="226" y1="226" x2="273.9" y2="274"/>
		<rect x="226" y="226" class="st4" width="2" height="48"/>
		<rect x="228" y="226" class="st4" width="2" height="48"/>
		<rect x="230" y="226" class="st4" width="2" height="48"/>
		<rect x="232" y="226" class="st4" width="2" height="48"/>
		<rect x="234" y="226" class="st4" width="2" height="48"/>
		<rect x="236" y="226" class="st4" width="2" height="48"/>
		<rect x="238" y="226" class="st4" width="2" height="48"/>
		<rect x="240" y="226" class="st4" width="2" height="48"/>
		<rect x="242" y="226" class="st4" width="2" height="48"/>
		<rect x="244" y="226" class="st4" width="2" height="48"/>
		<rect x="246" y="226" class="st4" width="2" height="48"/>
		<rect x="248" y="226" class="st4" width="2" height="48"/>
		<rect x="250" y="226" class="st4" width="2" height="48"/>
		<rect x="252" y="226" class="st4" width="2" height="48"/>
		<rect x="254" y="226" class="st4" width="2" height="48"/>
		<rect x="256" y="226" class="st4" width="2" height="48"/>
		<rect x="258" y="226" class="st4" width="2" height="48"/>
		<rect x="260" y="226" class="st4" width="2" height="48"/>
		<rect x="262" y="226" class="st4" width="2" height="48"/>
		<rect x="264" y="226" class="st4" width="2" height="48"/>
		<rect x="266" y="226" class="st4" width="2" height="48"/>
		<rect x="268" y="226" class="st4" width="2" height="48"/>
		<rect x="270" y="226" class="st4" width="2" height="48"/>
		<rect x="272" y="226" class="st4" width="2" height="48"/>
		<rect x="226" y="272" class="st4" width="48" height="2"/>
		<rect x="226" y="270" class="st4" width="48" height="2"/>
		<rect x="226" y="268" class="st4" width="48" height="2"/>
		<rect x="226" y="266" class="st4" width="48" height="2"/>
		<rect x="226" y="264" class="st4" width="48" height="2"/>
		<rect x="226" y="262" class="st4" width="48" height="2"/>
		<rect x="226" y="260" class="st4" width="48" height="2"/>
		<rect x="226" y="258" class="st4" width="48" height="2"/>
		<rect x="226" y="256" class="st4" width="48" height="2"/>
		<rect x="226" y="254" class="st4" width="48" height="2"/>
		<rect x="226" y="252" class="st4" width="48" height="2"/>
		<rect x="226" y="250" class="st4" width="48" height="2"/>
		<rect x="226" y="248" class="st4" width="48" height="2"/>
		<rect x="226" y="246" class="st4" width="48" height="2"/>
		<rect x="226" y="244" class="st4" width="48" height="2"/>
		<rect x="226" y="242" class="st4" width="48" height="2"/>
		<rect x="226" y="240" class="st4" width="48" height="2"/>
		<rect x="226" y="238" class="st4" width="48" height="2"/>
		<rect x="226" y="236" class="st4" width="48" height="2"/>
		<rect x="226" y="234" class="st4" width="48" height="2"/>
		<rect x="226" y="232" class="st4" width="48" height="2"/>
		<rect x="226" y="230" class="st4" width="48" height="2"/>
		<rect x="226" y="228" class="st4" width="48" height="2"/>
		<rect x="226" y="226" class="st4" width="48" height="2"/>
	</g>
</g>
<path class="st5" d="M247.6,255.7c-12.2,1-23.4-4.1-35.6-8.1c-64.1-21.4-129.2-42.7-193.3-64.1c-4.1-2-7.1-3.1-10.2-6.1
	c-4.1-3.1-4.1-7.1,0-10.2c3.1-2,7.1-5.1,11.2-6.1c69.2-20.3,137.3-40.7,206.5-62c15.3-5.1,31.5-5.1,47.8,0
	c68.1,20.3,136.3,40.7,204.4,61c4.1,2,8.1,3.1,12.2,6.1c5.1,3.1,5.1,8.1,0,11.2c-3.1,2-6.1,4.1-10.2,5.1
	c-68.1,22.4-136.3,45.8-205.5,68.1C265.9,254.6,257.8,255.7,247.6,255.7z"/>
<path class="st6" d="M112.3,258.7c-10.2-2-12.2,4.1-12.2,9.2c0,26.4,0,51.9,0,77.3c0,9.2,3.1,14.2,9.2,20.3c2,2,5.1,4.1,7.1,6.1
	c16.3,11.2,35.6,18.3,54.9,23.4c38.7,10.2,77.3,12.2,117,7.1c25.4-3.1,50.9-10.2,74.3-20.3c10.2-5.1,20.3-10.2,27.5-18.3
	c5.1-5.1,7.1-10.2,6.1-17.3c1-24.4,1-49.8,1-75.3c0-14.2-10.2-12.2-14.2-11.2c-35.6,12.2-73.2,23.4-108.8,35.6
	c-18.3,6.1-35.6,6.1-52.9,0L112.3,258.7z"/>
<path class="st5" d="M452,235.3c-3.1,1-4.1,2-4.1,6.1c0,23.4,0,45.8,0,69.2c0,2-1,5.1-2,7.1c-5.1,12.2-10.2,24.4-14.2,36.6
	c-4.1,11.2-2,23.4,6.1,31.5c2,3.1,6.1,6.1,9.2,8.1c3.1,3.1,8.1,4.1,12.2,5.1c7.1,1,13.2-3.1,18.3-7.1c2-2,5.1-4.1,7.1-7.1
	c6.1-8.1,7.1-18.3,5.1-27.5c-3.1-14.2-9.2-26.4-15.3-38.7c-2-2-2-6.1-2-8.1c0-25.4,0-49.8,0-75.3c0-5.1-4.1-4.1-6.1-3.1L452,235.3z"
	/>
</svg>
