<?xml version="1.0" encoding="utf-8"?>
<!-- Generator: Adobe Illustrator 25.2.0, SVG Export Plug-In . SVG Version: 6.00 Build 0)  -->
<svg version="1.1" id="Layer_1" xmlns="http://www.w3.org/2000/svg" xmlns:xlink="http://www.w3.org/1999/xlink" x="0px" y="0px"
	 viewBox="0 0 500 500" style="enable-background:new 0 0 500 500;" xml:space="preserve">
<style type="text/css">
	.st0{fill:#393E46;}
	.st1{fill:#00ADB5;}
</style>
<path class="st0" d="M367.6,62.8c-4.4,0-8,3.6-8,8s3.6,8,8,8c28.2,0,51.2,23,51.2,51.2c0,4.4,3.6,8,8,8s8-3.6,8-8
	C434.8,93,404.7,62.8,367.6,62.8z"/>
<path class="st0" d="M65.2,130c0,4.4,3.6,8,8,8s8-3.6,8-8c0-28.2,23-51.2,51.2-51.2c4.4,0,8-3.6,8-8s-3.6-8-8-8
	C95.3,62.8,65.2,93,65.2,130z"/>
<path class="st1" d="M379.5,3.6c-4.4,0-8,3.6-8,8s3.6,8,8,8c54.3,0,98.5,44.2,98.5,98.5c0,4.4,3.6,8,8,8s8-3.6,8-8
	C494,55,442.6,3.6,379.5,3.6z"/>
<path class="st1" d="M128.5,11.6c0-4.4-3.6-8-8-8C57.4,3.6,6,55,6,118.2c0,4.4,3.6,8,8,8s8-3.6,8-8c0-54.3,44.2-98.5,98.5-98.5
	C125,19.7,128.5,16.1,128.5,11.6z"/>
<path class="st1" d="M408.7,363.9c-1-3.1-3-5.6-5.3-7.6c0.2-4.9,0.3-9.8,0.3-14.8c0-109.2-45.2-201.7-107.7-233.5
	c0.9-3.8,1.5-7.7,1.5-11.8c0-27.1-22-49-49-49s-49,22-49,49c0,4.1,0.5,8,1.5,11.8C138.4,139.8,93.1,232.3,93.1,341.5
	c0,5,0.1,9.9,0.3,14.8c-2.3,2-4.3,4.5-5.3,7.6l-23.2,69.5c-3.8,11.3,4.6,22.9,16.5,22.9h113.3c6.9,23.2,28.4,40.1,53.8,40.1
	s46.9-16.9,53.8-40.1h113.3c11.9,0,20.2-11.6,16.5-22.9L408.7,363.9z M208.3,122.7l11.6-5.9l-3.1-12.6c-0.7-2.7-1-5.3-1-7.8
	c0-18,14.7-32.7,32.7-32.7s32.7,14.7,32.7,32.7c0,2.5-0.3,5.1-1,7.8l-3.1,12.6l11.6,5.9c58.2,29.5,98.8,119.5,98.8,218.9
	c0,3.4,0,6.8-0.1,10.2H109.6c-0.1-3.4-0.1-6.8-0.1-10.2C109.5,242.2,150.1,152.2,208.3,122.7z M248.4,480.3
	c-16.4,0-30.6-9.9-36.8-24.1h73.5C279,470.4,264.8,480.3,248.4,480.3z M416.6,439.7c-0.4,0.6-0.9,0.6-1.1,0.6H304.6H192.3H81.4
	c-0.2,0-0.7,0-1.1-0.6s-0.2-1-0.2-1.2l23.2-69.5c0.2-0.5,0.7-0.9,1.3-0.9h287.6c0.6,0,1.1,0.4,1.3,0.9l23.2,69.5
	C416.8,438.7,417,439.1,416.6,439.7z"/>
</svg>
