<?xml version="1.0" encoding="utf-8"?>
<!-- Generator: Adobe Illustrator 25.2.0, SVG Export Plug-In . SVG Version: 6.00 Build 0)  -->
<svg version="1.1" id="Capa_1" xmlns="http://www.w3.org/2000/svg" xmlns:xlink="http://www.w3.org/1999/xlink" x="0px" y="0px"
	 viewBox="0 0 500 500" style="enable-background:new 0 0 500 500;" xml:space="preserve">
<style type="text/css">
	.st0{fill:#393E46;}
	.st1{fill:#00ADB5;}
</style>
<path class="st0" d="M21.7,157.1l112.7,46.5c2.1,0.9,4.2,1.3,6.3,1.3c5.7,0,11.2-3,14.3-8.1l50.7-85.4l92.7-45.6l2.9,42.1
	c0.1,1.2,0.9,2.3,2.1,2.7c1.2,0.4,2.5-0.1,3.3-1L384.5,8.2c0.8-1,0.9-2.4,0.3-3.5c-0.6-1.2-1.7-1.9-3-1.9L254.2,2.5
	c-1.2,0-2.4,0.8-2.8,1.9c-0.4,1.2-0.1,2.5,0.8,3.3l31.6,28l-97.1,47.8c-2.9,1.4-5.3,3.7-7,6.4l-45.9,77.3l-99.4-41
	c-8.5-3.5-18.2,0.5-21.7,9C9.2,143.9,13.3,153.6,21.7,157.1z"/>
<path class="st1" d="M471.9,447.5H28.1c-13.8,0-25,11.2-25,25s11.2,25,25,25h443.8c13.8,0,25-11.2,25-25S485.7,447.5,471.9,447.5z"
	/>
<path class="st1" d="M52.8,244.4c-5.6,0-10.1,4.5-10.1,10.1v149.7c0,5.6,4.5,10.1,10.1,10.1h58.9c5.6,0,10.1-4.5,10.1-10.1V254.5
	c0-5.6-4.5-10.1-10.1-10.1H52.8L52.8,244.4z"/>
<path class="st1" d="M378.3,84.6v319.6c0,5.6,4.5,10.1,10.1,10.1h58.9c5.6,0,10.1-4.5,10.1-10.1V84.6c0-5.6-4.5-10.1-10.1-10.1
	h-58.9C382.8,74.5,378.3,79,378.3,84.6z"/>
<path class="st1" d="M276.5,163.6c-5.6,0-10.1,4.5-10.1,10.1v230.5c0,5.6,4.5,10.1,10.1,10.1h58.9c5.6,0,10.1-4.5,10.1-10.1V173.7
	c0-5.6-4.5-10.1-10.1-10.1L276.5,163.6L276.5,163.6z"/>
<path class="st1" d="M164.6,288.9c-5.6,0-10.1,4.5-10.1,10.1v105.2c0,5.6,4.5,10.1,10.1,10.1h58.9c5.6,0,10.1-4.5,10.1-10.1V299
	c0-5.6-4.5-10.1-10.1-10.1H164.6z"/>
</svg>
