<?xml version="1.0" encoding="utf-8"?>
<!-- Generator: Adobe Illustrator 25.2.0, SVG Export Plug-In . SVG Version: 6.00 Build 0)  -->
<svg version="1.1" id="Layer_1" xmlns="http://www.w3.org/2000/svg" xmlns:xlink="http://www.w3.org/1999/xlink" x="0px" y="0px"
	 viewBox="0 0 268.2 77.9" style="enable-background:new 0 0 268.2 77.9;" xml:space="preserve">
<style type="text/css">
	.st0{clip-path:url(#SVGID_2_);}
	.st1{fill:#263238;stroke:#263238;stroke-linecap:round;stroke-linejoin:round;}
	.st2{fill:none;stroke:#FFFFFF;stroke-width:0.5;stroke-linecap:round;stroke-linejoin:round;}
	.st3{fill:#FFFFFF;stroke:#263238;stroke-miterlimit:10;}
	.st4{fill:#263238;stroke:#263238;stroke-miterlimit:10;}
	.st5{fill:#FFFFFF;stroke:#263238;stroke-linecap:round;stroke-linejoin:round;}
	.st6{fill:#00ADB5;stroke:#263238;stroke-miterlimit:10;}
	.st7{clip-path:url(#SVGID_4_);}
	.st8{fill:none;stroke:#263238;stroke-linecap:round;stroke-linejoin:round;}
	.st9{clip-path:url(#SVGID_6_);}
	.st10{fill:none;stroke:#FFFFFF;stroke-linecap:round;stroke-linejoin:round;}
	.st11{clip-path:url(#SVGID_8_);}
</style>
<g>
	<g id="freepik--character-4--inject-2">
		<g>
			<g>
				<defs>
					<rect id="SVGID_1_" x="209.5" y="-1.3" width="60.4" height="79.2"/>
				</defs>
				<clipPath id="SVGID_2_">
					<use xlink:href="#SVGID_1_"  style="overflow:visible;"/>
				</clipPath>
				<g class="st0">
					<path class="st1" d="M235.6,42.8c0,0-15.9,6.4-18.4,7.2s-2.6,1.9-2.6,5.3s0.5,18.9,0.5,20.1s-0.2,3.6-0.2,3.6h52.2
						c0,0-3.4-14-5.5-20.6s-1.1-7.2-4.7-9.4c-3.6-2.2-13-5.3-15-5.8C239.8,43,237.7,42.8,235.6,42.8z"/>
					<path class="st1" d="M236.4,41.1c0,0-3.8-0.3-5.3,2.8s-5.3,10.4-5.3,10.4l4.5,2.8l-5.3,2.7c0.9,3.9,2,7.7,3.3,11.4
						c0.9,2.5,1.9,4.9,3.1,7.2c0,0,7.6-8.6,10.6-11.2c2-1.9,3.6-4.1,4.8-6.6l-3.9-3.6l6.7-0.8c0,0-1.7-8.7-3.9-12.3
						S236.4,41.1,236.4,41.1z"/>
					<path class="st2" d="M228.7,71.3c0.3,0.8,0.6,1.5,0.9,2.2"/>
					<path class="st2" d="M229.3,47.8l-3.5,6.5l4.5,2.8l-4.9,2.8c0,0,1.1,4.9,2.5,9.4"/>
					<path class="st2" d="M247,44.8l2.6,11.4l-6.7,0.8l3.9,3.6c0,0-7.5,8.8-10.6,12.3"/>
					<line class="st2" x1="256.8" y1="62.3" x2="254" y2="79.7"/>
					<path class="st2" d="M218.3,59.2c0,0-0.3,10.5-0.2,13.7c0.1,2.1,0.5,4.1,1.2,6.1"/>
					<polygon class="st3" points="247.2,66.5 249.8,63 252,66.5 					"/>
					<path class="st4" d="M250.3,32.2c0,0,2.6-0.3,3.3,3.6s-1.2,8.9-7.5,8.9s-5.8-4.7-5.6-8.1S250.3,32.2,250.3,32.2z"/>
					<path class="st3" d="M234.8,38.6c0,0-0.2,4.5-0.5,9.7s-2.8,12.2-2.8,18.1c0,3.3,0.1,6.6,0.5,9.8c0,0,5.1-10,7.5-15.8
						s5-22.5,5-22.5L234.8,38.6z"/>
					<path class="st1" d="M250.1,28.3c1.2-2.3,1.8-4.8,1.9-7.3c0-3.9-0.8-9.2-5.3-11.6s-13.3-0.8-15.5,3.8c-1.5,2.9-2.2,6.1-2,9.4
						c0.2,1.8,0.5,3.5,1.1,5.1c0,0,0.6-3,4.8-4.5s8.8-3.1,10.9-2S250.1,28.3,250.1,28.3z"/>
					<path class="st5" d="M230.5,26.7c0,0-1.9-2.8-2.7-0.8s0.3,5,1.6,5.6s1.9,0.3,1.9,0.3L230.5,26.7z"/>
					<path class="st5" d="M250.1,27.2c0,0,2.2-2.2,2.2-0.2c-0.1,1.9-0.8,3.7-2,5.1c-0.9,1.2-1.4,0.6-1.4,0.6L250.1,27.2z"/>
					<path class="st3" d="M246.4,18.2l1.5-4.4c0.1-0.4-0.1-0.7-0.4-0.9s-0.7,0.1-0.9,0.4l0,0l-1.3,3.6c-2.8-0.7-5.7-0.1-8,1.4
						c-4.1,2.7-7.3,5-7.3,5s0.2,8.9,1.9,12.2s4.7,7.2,7.2,7.2s6.9-5.5,8.6-7.2s2.8-8.4,2.8-10.6C250.4,23.4,247.9,20,246.4,18.2z"/>
					<path class="st6" d="M240.3,58.3c-2.5,0.2-5.1-0.1-7.5-1c-0.7,3-1.1,6.1-1.2,9.1c0,3.3,0.1,6.6,0.5,9.8c0,0,5.1-10,7.5-15.8
						C239.8,59.8,240,59.1,240.3,58.3z"/>
				</g>
			</g>
		</g>
	</g>
	<g id="freepik--character-3--inject-2">
		<g>
			<g>
				<defs>
					<rect id="SVGID_3_" x="138.7" y="-1.3" width="60.4" height="79.2"/>
				</defs>
				<clipPath id="SVGID_4_">
					<use xlink:href="#SVGID_3_"  style="overflow:visible;"/>
				</clipPath>
				<g class="st7">
					<path class="st6" d="M166.5,34.5c-4,0.5-7.9,1.1-11.9,2c-4.6,1.2-6.8,1.7-6.8,3.9s-0.5,11.7-2,15.9s-3.2,10.3-3.2,12.5
						s3.2,11.5,3.2,11.5h5.9c0,0-2.2-10.8-2.2-11.9s3-10,3-10l0.2,22.2h31l-0.3-21.2c0,0,2.7,8.6,2.7,10.2s-1,11.5-1,11.5h5.9
						c0,0,2.9-11,2.7-14.9s-3-16.3-3.4-20s1.9-5.8-2.2-8.3s-13.4-4.1-15.4-4.2C170.6,33.8,168.5,34.1,166.5,34.5z"/>
					<polyline class="st8" points="152.6,58.6 153.1,50.1 151.2,43.7 					"/>
					<line class="st8" x1="183.4" y1="48.8" x2="183.4" y2="59.6"/>
					<line class="st8" x1="183.6" y1="51.8" x2="186.3" y2="47.7"/>
					<line class="st8" x1="169.3" y1="46" x2="168.3" y2="80.4"/>
					<path class="st1" d="M168.8,30.5c-1.5,0.1-2.9,0.7-4.1,1.7c-1.9,1.7-2.5,8.3-2.5,8.3s5.9-1.7,6.9-2s10,1.7,10,1.7
						s-0.8-5.9-3.2-8.5S168.8,30.5,168.8,30.5z"/>
					<path class="st5" d="M166.5,25c0,0,1.4,2,1.4,8s0.7,12.2,1.5,13s4.4-8,4.4-12c0.1-2.6,0.7-5.2,1.9-7.6c0,0-4.2-2.9-6.4-3.2
						C167.9,23,166.7,23.8,166.5,25z"/>
					<path class="st1" d="M168.1,39.6c0.3,3.3,0.7,5.9,1.2,6.4s2.1-2.8,3.3-6.3C171.1,39.9,169.6,39.9,168.1,39.6z"/>
					<path class="st1" d="M176.8,8.8c0,0,1,0.3,2.9-1.4s1-4.9,0.2-4.2c-0.5,0.4-1,0.9-1.4,1.5c-0.7-2-2.5-3.5-4.6-3.7
						c-3.5-0.3-7.8,4.6-7.8,4.6s-7.8,5.8-6.9,10.3s5.2,8.6,7.3,9.1s5.8-3.2,5.1-6.4s-1.2-8,0-8.5C173.3,9.6,175,9.1,176.8,8.8z"/>
					<path class="st5" d="M166.1,22.3c0,0-2.9-2-3.5-0.5s0.9,4.2,2.7,5.1s3.5-1.9,3.5-1.9s5.9,4.7,10,4.9s4.2-3,3.6-9.1
						s-2.7-10.8-4.3-12.5s-7.5-0.2-9.3,1.4s-3,2.9-1.2,3.2s3.5,1,1.9,2.9s-2.5,1.2-2,2.5s2.7,2.7,0.7,3.4L166.1,22.3z"/>
				</g>
			</g>
		</g>
	</g>
	<g id="freepik--character-2--inject-2">
		<g>
			<g>
				<defs>
					<rect id="SVGID_5_" x="59.5" y="-1.7" width="60.4" height="79.6"/>
				</defs>
				<clipPath id="SVGID_6_">
					<use xlink:href="#SVGID_5_"  style="overflow:visible;"/>
				</clipPath>
				<g class="st9">
					<path class="st1" d="M91.7,31.3c0,0-21.3,2.5-22,4.4s-8.5,20-7.3,21.7s3.6,2,5.4,2c1.3-0.1,2.6-0.6,3.6-1.5l-5.4,23h39.3
						l1.2-16.1c0,0,4.6,2,7.6,1.7s2.4-2.7,1.7-7.3s-1-16.3-2.2-18.5S98,32.4,98,32.4L91.7,31.3z"/>
					<polyline class="st10" points="106.8,58.9 106.8,48.4 107.6,46.4 					"/>
					<polyline class="st10" points="72.6,50.1 74.3,43 73.9,41.5 					"/>
					<path class="st6" d="M77,81.6c0,0,3.2-13.9,4.7-22.5s8-27.8,8-27.8l9.8,2.7c0,0-6.6,19.3-8.3,27.6s-3.1,20.1-3.1,20.1L77,81.6z
						"/>
					<path class="st6" d="M91,29.3c0,0-2.9,0-3.9,2s-2.4,9.8-2.4,9.8s6.1-2.7,6.6-2.7s2.9,0.2,4.1,1.5s3.7,4.6,3.7,4.6
						s3.9-6.3,2.9-10.3c-0.7-2.7-3.1-4.7-5.9-4.9L91,29.3z"/>
					<path class="st5" d="M90,24.9c0,0-0.3,11.9,0,15.2s0.9,4.2,0.9,4.2s2.9-4.7,3.7-6.4s3.4-3.6,4.6-5.1s2-7.3,2-7.3
						s-4.4,3.4-6.8,2.5C92.7,27.3,91.2,26.2,90,24.9z"/>
					<path class="st5" d="M97,3.4c-2.9,0.4-5.7,1.9-6.5,4.7c-0.7,2.4-1,10.2-1.2,14s1.9,8.8,3.6,9.3c1.4,0.5,2.9,0.6,4.4,0.3
						c0.9-0.3,4.8-5.6,5.8-6.6s4.1-10.5,4.1-13.9c0.2-3.4-2-6.5-5.2-7.6C100.3,3.3,98.6,3.2,97,3.4z"/>
					<path class="st5" d="M105.4,19.3c0,0,2.7-2.4,2,0.7c-0.4,1.8-1.7,3.4-3.4,4.2L105.4,19.3z"/>
					<path class="st5" d="M89.7,16.1c0,0-2-1.9-2,0.7c0.1,1.7,0.7,3.3,1.7,4.6L89.7,16.1z"/>
					<path class="st1" d="M105.4,19.3c0.9-2.6,1.4-5.3,1.7-8c0.2-3.4-2-6.5-5.2-7.6c-1.6-0.4-3.2-0.5-4.9-0.3
						c-2.9,0.4-5.7,1.9-6.5,4.7c-0.5,2.8-0.8,5.6-0.9,8.5c0.9-0.7,2.6-2.3,2.3-4.3c-0.5-2.5-1.5-3.7,0.3-4.9s4.1,0.5,7.1,1.5
						s6.1-0.3,6.9,0.5s-2.7,4.4-2.2,5.8S105.7,18.1,105.4,19.3L105.4,19.3z"/>
					<path class="st5" d="M81,51.8c0,0-2.5-3.6-4.2-3.7S71,51.8,71,51.8H81z"/>
					<polygon class="st5" points="97.1,52.1 99.5,52.1 100,56.9 97.4,56.2 					"/>
					<polygon class="st5" points="99.5,52.1 103.7,54 104.7,59.3 100,56.9 					"/>
					<path class="st1" d="M113,61.3l-24.2-9.5c-1.4,0.7-2.7,1.5-3.9,2.5c-0.7,0.7-1.2,1.6-1.5,2.5c0,0,11.5,8.3,17.1,10.8
						s13.7,3.4,15.1,2s1-6.6,0.2-7.5c-0.4-0.5-1-0.9-1.5-1.2"/>
					<path class="st1" d="M97.1,51.3l0.3,4.9c0,0-17.8,4.1-24.4,5.2s-10.2,0.3-11.2-2.7s2.4-6.8,3.9-7.6S97.1,51.3,97.1,51.3z"/>
				</g>
			</g>
		</g>
	</g>
	<g id="freepik--character-1--inject-2">
		<g>
			<g>
				<defs>
					<rect id="SVGID_7_" x="-1.3" y="-1.3" width="53.5" height="79.2"/>
				</defs>
				<clipPath id="SVGID_8_">
					<use xlink:href="#SVGID_7_"  style="overflow:visible;"/>
				</clipPath>
				<g class="st11">
					<path class="st6" d="M31.7,39.7c0,0,6.8,1.7,9.5,2.5s3.6,1.9,3.6,3.9s-1.5,11-1.5,12.4v9.1c0,2.5,2.5,11.9,2.5,11.9h-33
						c0,0-3.7-14.2-6.3-22S3.6,47,6.2,45.8c6-2.2,12.2-4.1,18.4-5.6C27,39.9,29.3,39.7,31.7,39.7z"/>
					<path class="st8" d="M41.5,50.9c0,0,2,9.3,1.4,12.7c-0.6,3.4-5.2,16.3-5.2,16.3"/>
					<path class="st6" d="M6.2,45.8c0,0-3,0.5-2.2,4.4S0.9,79.3,0.9,79.3h7.5c0,0,5.1-13.4,5.9-16.6c0.8-3.2,1.5-5.8,0-8.5"/>
					<polygon class="st1" points="37.7,23.2 38.8,57.7 28.8,57.7 28.8,26.2 					"/>
					<path class="st5" d="M24.8,48c0,0,2.9,13,4.1,16.9s1.4,13,1,14.2s4.2,0,4.2,0s1.2-9,1.9-14.2s-1.4-15.1-1.4-15.1l-2.2-8.6
						l-8.3,1.5L24.8,48z"/>
					<path class="st5" d="M32,33.8c-0.5,2.7-0.4,5.5,0.2,8.1c1,3.7,3.7,10.5,1.4,12.4s-5.6,0.9-7.3-2.5S23.1,39.9,23.1,33
						s0.7-8.1,3.1-8.1S32,33.8,32,33.8z"/>
					<path class="st1" d="M27.1,30.6c-1.5,1.3-3.3,2.3-5.2,2.9c-2.5,0.5-3.9-6.3-4.2-13S19.1,10,22.6,8.3s12.2-0.9,15.6,0.5
						s7.4,3.6,7.4,7.1s-4.6,6.4-5.9,7.2s-4.6,2-6.6,4.1C31.3,28.7,29.3,29.8,27.1,30.6z"/>
					<path class="st5" d="M27.1,30.6c0,0,2,5.1,5.8,5.2s8-8.5,8.1-12.2s-3.7-10.2-3.7-10.2S30.7,28.5,27.1,30.6z"/>
					<polyline class="st1" points="26.1,23 26.5,59.5 15.1,59.5 17.7,17 					"/>
				</g>
			</g>
		</g>
	</g>
</g>
</svg>
