<svg id="Layer_1" data-name="Layer 1" xmlns="http://www.w3.org/2000/svg" viewBox="0 0 889.08 247.69"><defs><style>.cls-1{fill:#e6e6e6;}.cls-2{fill:#3f3d56;}.cls-3{fill:#00adb5;}</style></defs><ellipse class="cls-1" cx="444.54" cy="186.48" rx="444.54" ry="12.43"/><polygon class="cls-2" points="481.05 51.76 481.05 37.1 407.74 37.1 407.74 38.02 407.74 51.76 407.74 169.98 407.74 184.64 422.4 184.64 481.05 184.64 481.05 169.98 422.4 169.98 422.4 51.76 481.05 51.76"/><path class="cls-3" d="M516.79,248.79V396.33H590.1V248.79Zm58.65,132.88h-44V263.45h44Z" transform="translate(0 -211.69)"/><polygon class="cls-3" points="313.34 169.98 313.34 38.02 298.68 38.02 298.68 169.98 298.68 184.64 313.34 184.64 372 184.64 372 169.98 313.34 169.98"/><polygon class="cls-2" points="265.69 51.76 265.69 37.1 192.38 37.1 192.38 38.02 192.38 51.76 192.38 103.08 192.38 117.74 192.38 169.98 192.38 184.64 207.04 184.64 265.69 184.64 265.69 169.98 207.04 169.98 207.04 117.74 265.69 117.74 265.69 103.08 207.04 103.08 207.04 51.76 265.69 51.76"/><polygon class="cls-3" points="839.37 51.76 839.37 37.1 766.06 37.1 766.06 38.02 766.06 51.76 766.06 103.08 766.06 117.74 766.06 169.98 766.06 184.64 780.72 184.64 839.37 184.64 839.37 169.98 780.72 169.98 780.72 117.74 839.37 117.74 839.37 103.08 780.72 103.08 780.72 51.76 839.37 51.76"/><polygon class="cls-2" points="142.89 38.02 142.89 159.2 104.23 120.54 104.14 120.63 104.06 120.55 64.53 160.07 64.53 37.56 49.87 37.56 49.87 184.19 64.53 184.19 64.53 180.81 104.15 141.19 142.89 179.94 142.89 184.64 157.55 184.64 157.55 38.02 142.89 38.02"/><polygon class="cls-2" points="717.49 38.02 717.49 41.39 677.88 81 639.13 42.26 639.13 37.56 624.47 37.56 624.47 184.19 639.13 184.19 639.13 63 677.79 101.66 677.88 101.57 677.96 101.65 717.49 62.13 717.49 184.64 732.15 184.64 732.15 38.02 717.49 38.02"/><circle class="cls-3" cx="113.08" cy="38.69" r="9"/><circle class="cls-3" cx="291.08" cy="238.69" r="9"/><circle class="cls-3" cx="522.45" cy="9" r="9"/><circle class="cls-3" cx="782.08" cy="230.69" r="9"/><circle class="cls-3" cx="791.08" cy="20.39" r="9"/><circle class="cls-3" cx="677.08" cy="156.69" r="9"/></svg>